<svg id="레이어_1" data-name="레이어 1" xmlns="http://www.w3.org/2000/svg" xmlns:xlink="http://www.w3.org/1999/xlink" viewBox="0 0 164.76 164.76"><defs><style>.cls-1{fill:#fff;}.cls-2,.cls-3{opacity:0.3;}.cls-2{fill:url(#무제_그라디언트_4);}.cls-3{fill:url(#무제_그라디언트_3);}.cls-4{fill:#29a788;}.cls-5{fill:url(#무제_그라디언트_150);}</style><linearGradient id="무제_그라디언트_4" x1="82.38" y1="59" x2="108.3" y2="59" gradientUnits="userSpaceOnUse"><stop offset="0" stop-color="#fff" stop-opacity="0"/><stop offset="1" stop-color="#ff582b"/></linearGradient><linearGradient id="무제_그라디언트_3" x1="56.46" y1="81.45" x2="82.38" y2="81.45" gradientUnits="userSpaceOnUse"><stop offset="0" stop-color="#ff582b"/><stop offset="1" stop-color="#fff" stop-opacity="0"/></linearGradient><linearGradient id="무제_그라디언트_150" x1="105.06" y1="109.51" x2="59.7" y2="30.94" gradientUnits="userSpaceOnUse"><stop offset="0" stop-color="#ff3c00"/><stop offset="1" stop-color="#ff9980"/></linearGradient></defs><title>NT17_logo</title><rect width="164.76" height="164.76"/><path class="cls-1" d="M53.73,114.89H50.94l-4.78-7.73v7.73H43.5V103.63H47l4.1,6.45v-6.45h2.66Z"/><path class="cls-1" d="M64.75,114.89H56.61V103.63h8.14v2.18H59.49v1.94h4.88v2.18H59.49v2.78h5.26Z"/><path class="cls-1" d="M77.39,114.89H74l-2.42-3.7-2.47,3.7H65.93l4-5.67L66,103.63h3.35l2.34,3.51,2.41-3.51h3.22L73.4,109.1Z"/><path class="cls-1" d="M87.81,105.81H84.3v9.08H81.4v-9.08H77.88v-2.18h9.93Z"/><path class="cls-1" d="M97.7,114.89H89.56V103.63H97.7v2.18H92.45v1.94h4.87v2.18H92.45v2.78H97.7Z"/><path class="cls-1" d="M111,114.89h-3.55l-3.06-4.13H103v4.13h-2.88V103.63H105a10.56,10.56,0,0,1,1.71.12,3.66,3.66,0,0,1,1.35.49,3,3,0,0,1,1,1,2.79,2.79,0,0,1,.37,1.51,3.3,3.3,0,0,1-.58,2,4.35,4.35,0,0,1-1.65,1.31Zm-4.53-7.81a1.44,1.44,0,0,0-.18-.73,1.1,1.1,0,0,0-.59-.47,2.34,2.34,0,0,0-.69-.15c-.26,0-.57,0-.91,0H103v3h.9a9.12,9.12,0,0,0,1.16-.07,1.75,1.75,0,0,0,.79-.31,1.51,1.51,0,0,0,.44-.52A1.78,1.78,0,0,0,106.45,107.08Z"/><path class="cls-1" d="M121.26,111.35a3.2,3.2,0,0,1-1.41,2.7,6.28,6.28,0,0,1-3.83,1,11,11,0,0,1-2.44-.24,12.25,12.25,0,0,1-1.94-.63v-2.69H112a6.93,6.93,0,0,0,2,1.1,6.45,6.45,0,0,0,2.14.38,6.83,6.83,0,0,0,.7,0,2.83,2.83,0,0,0,.7-.15,2,2,0,0,0,.55-.34.89.89,0,0,0-.1-1.25,2.39,2.39,0,0,0-.92-.41c-.42-.1-.87-.19-1.34-.28a9.93,9.93,0,0,1-1.33-.34,4.1,4.1,0,0,1-2-1.25,3.16,3.16,0,0,1,.78-4.53,6.18,6.18,0,0,1,3.63-1,11.45,11.45,0,0,1,2.19.21,11.27,11.27,0,0,1,1.88.54v2.6h-.31a6,6,0,0,0-1.66-.91,5.64,5.64,0,0,0-2-.37,5.81,5.81,0,0,0-.72,0,2.7,2.7,0,0,0-.69.18,1.41,1.41,0,0,0-.51.35.75.75,0,0,0-.21.52.79.79,0,0,0,.34.69,3.85,3.85,0,0,0,1.28.43l1.19.25a9.55,9.55,0,0,1,1.23.34,4,4,0,0,1,1.91,1.15A2.83,2.83,0,0,1,121.26,111.35Z"/><polygon class="cls-2" points="108.3 47.78 108.3 62.74 95.34 70.22 82.38 62.74 108.3 47.78"/><polygon class="cls-3" points="82.38 77.71 69.42 70.22 56.46 78.02 56.46 92.67 82.38 77.71"/><polygon class="cls-4" points="121.26 100.16 56.46 62.74 56.46 92.67 43.5 100.16 43.5 40.3 108.3 77.71 108.3 47.78 121.26 40.3 121.26 100.16"/><path class="cls-1" d="M46.82,123.17h-.59v-2a3.46,3.46,0,0,0,0-.46.8.8,0,0,0-.11-.32.43.43,0,0,0-.22-.2,1,1,0,0,0-.38-.06,1.42,1.42,0,0,0-.51.11,2.94,2.94,0,0,0-.5.31v2.6H43.9v-3.49h.59v.39a2.48,2.48,0,0,1,.57-.36,1.61,1.61,0,0,1,.6-.12,1.09,1.09,0,0,1,.87.34,1.47,1.47,0,0,1,.29,1Z"/><path class="cls-1" d="M51.68,121.49H49.1a1.6,1.6,0,0,0,.1.56,1,1,0,0,0,.27.39,1,1,0,0,0,.38.23,1.59,1.59,0,0,0,.5.07,1.83,1.83,0,0,0,.71-.14,1.86,1.86,0,0,0,.52-.28h0V123a3.39,3.39,0,0,1-.61.21,2.27,2.27,0,0,1-.65.09,1.87,1.87,0,0,1-1.36-.48,1.76,1.76,0,0,1-.48-1.33,1.93,1.93,0,0,1,.46-1.36,1.61,1.61,0,0,1,1.23-.5,1.38,1.38,0,0,1,1.09.41,1.62,1.62,0,0,1,.39,1.17Zm-.57-.45a1.11,1.11,0,0,0-.24-.72.92.92,0,0,0-.7-.25,1,1,0,0,0-.75.28,1.12,1.12,0,0,0-.32.69Z"/><path class="cls-1" d="M55.18,123.14l-.36.08-.35,0a1.06,1.06,0,0,1-.81-.28,1.29,1.29,0,0,1-.28-.93v-1.85H53v-.5h.4v-1H54v1h1.21v.5H54v1.59c0,.18,0,.33,0,.43a.75.75,0,0,0,.09.29.41.41,0,0,0,.19.18.84.84,0,0,0,.36.06,1,1,0,0,0,.3,0l.23-.06h0Z"/><path class="cls-1" d="M61.08,119.68l-.91,3.49h-.54l-.9-2.69-.89,2.69H57.3l-.92-3.49H57l.64,2.71.88-2.71H59l.89,2.71.61-2.71Z"/><path class="cls-1" d="M65.7,121.43a2,2,0,0,1-.43,1.35,1.51,1.51,0,0,1-1.18.49,1.48,1.48,0,0,1-1.17-.49,2.29,2.29,0,0,1,0-2.7,1.48,1.48,0,0,1,1.17-.49,1.51,1.51,0,0,1,1.18.49A2,2,0,0,1,65.7,121.43Zm-.6,0a1.58,1.58,0,0,0-.27-1,1,1,0,0,0-1.48,0,2.07,2.07,0,0,0,0,2,.92.92,0,0,0,.74.34.9.9,0,0,0,.74-.34A1.59,1.59,0,0,0,65.1,121.43Z"/><path class="cls-1" d="M69.59,120.32h0l-.25,0-.3,0a1.2,1.2,0,0,0-.52.12,2.42,2.42,0,0,0-.49.32v2.47h-.59v-3.49H68v.52a2.76,2.76,0,0,1,.62-.4,1.32,1.32,0,0,1,.54-.12h.23l.2,0Z"/><path class="cls-1" d="M74.11,123.17h-.77l-1.4-1.52-.38.36v1.16H71v-4.86h.59v3.12l1.69-1.75H74l-1.63,1.62Z"/><path class="cls-1" d="M80.46,118.88h0l-.25-.06-.28,0a.79.79,0,0,0-.55.17.84.84,0,0,0-.17.6v.12h1.06v.5h-1v3h-.59v-3h-.39v-.5h.39v-.11a1.38,1.38,0,0,1,.31-1,1.19,1.19,0,0,1,.9-.33l.35,0,.29,0Z"/><path class="cls-1" d="M84.61,121.43a2,2,0,0,1-.44,1.35,1.48,1.48,0,0,1-1.17.49,1.5,1.5,0,0,1-1.18-.49,2.33,2.33,0,0,1,0-2.7,1.5,1.5,0,0,1,1.18-.49,1.48,1.48,0,0,1,1.17.49A2,2,0,0,1,84.61,121.43Zm-.61,0a1.65,1.65,0,0,0-.26-1,.91.91,0,0,0-.74-.33.88.88,0,0,0-.74.33,2,2,0,0,0,0,2,.9.9,0,0,0,.74.34.92.92,0,0,0,.74-.34A1.66,1.66,0,0,0,84,121.43Z"/><path class="cls-1" d="M88.5,120.32h0l-.26,0-.29,0a1.24,1.24,0,0,0-.53.12,2.36,2.36,0,0,0-.48.32v2.47h-.59v-3.49h.59v.52a2.73,2.73,0,0,1,.61-.4,1.33,1.33,0,0,1,.55-.12h.22l.21,0Z"/><path class="cls-1" d="M95.82,121.49H93.25a1.4,1.4,0,0,0,.1.56.91.91,0,0,0,.27.39,1,1,0,0,0,.38.23,1.53,1.53,0,0,0,.49.07,1.84,1.84,0,0,0,.72-.14,1.65,1.65,0,0,0,.51-.28h0V123a3.29,3.29,0,0,1-.6.21,2.32,2.32,0,0,1-.65.09,1.87,1.87,0,0,1-1.36-.48,1.77,1.77,0,0,1-.49-1.33,1.94,1.94,0,0,1,.47-1.36,1.58,1.58,0,0,1,1.23-.5,1.4,1.4,0,0,1,1.09.41,1.62,1.62,0,0,1,.38,1.17Zm-.57-.45a1.05,1.05,0,0,0-.23-.72.93.93,0,0,0-.7-.25,1,1,0,0,0-.75.28,1.06,1.06,0,0,0-.32.69Z"/><path class="cls-1" d="M100.54,123.17H99.8l-1-1.34-1,1.34h-.69l1.37-1.74-1.35-1.75h.74l1,1.32,1-1.32h.69l-1.37,1.72Z"/><path class="cls-1" d="M105.18,121.39a2.34,2.34,0,0,1-.13.77,1.55,1.55,0,0,1-.83,1,1.45,1.45,0,0,1-.59.12,1.88,1.88,0,0,1-.49-.06,2.11,2.11,0,0,1-.45-.18v1.46h-.59v-4.78h.59v.37a2.37,2.37,0,0,1,.53-.33,1.44,1.44,0,0,1,.62-.13,1.13,1.13,0,0,1,1,.47A2.17,2.17,0,0,1,105.18,121.39Zm-.61,0a1.61,1.61,0,0,0-.22-.94.73.73,0,0,0-.66-.31,1.17,1.17,0,0,0-.51.11,2.2,2.2,0,0,0-.49.28v2a2,2,0,0,0,.84.2.93.93,0,0,0,.76-.34A1.45,1.45,0,0,0,104.57,121.4Z"/><path class="cls-1" d="M109.81,121.49h-2.57a1.4,1.4,0,0,0,.1.56,1,1,0,0,0,.26.39,1.09,1.09,0,0,0,.39.23,1.53,1.53,0,0,0,.49.07,1.84,1.84,0,0,0,.72-.14,1.65,1.65,0,0,0,.51-.28h0V123a3.29,3.29,0,0,1-.6.21,2.32,2.32,0,0,1-.65.09,1.87,1.87,0,0,1-1.36-.48,1.77,1.77,0,0,1-.49-1.33,1.94,1.94,0,0,1,.47-1.36,1.58,1.58,0,0,1,1.23-.5,1.4,1.4,0,0,1,1.09.41,1.62,1.62,0,0,1,.38,1.17Zm-.57-.45a1.05,1.05,0,0,0-.23-.72,1,1,0,0,0-.7-.25,1,1,0,0,0-.75.28,1.06,1.06,0,0,0-.32.69Z"/><path class="cls-1" d="M113.68,120.32h0l-.25,0-.29,0a1.21,1.21,0,0,0-.53.12,2.42,2.42,0,0,0-.49.32v2.47h-.58v-3.49h.58v.52a2.76,2.76,0,0,1,.62-.4,1.33,1.33,0,0,1,.55-.12h.22l.2,0Z"/><path class="cls-1" d="M116.85,123.14l-.36.08-.35,0a1.06,1.06,0,0,1-.81-.28,1.29,1.29,0,0,1-.28-.93v-1.85h-.4v-.5h.4v-1h.59v1h1.21v.5h-1.21v1.59c0,.18,0,.33,0,.43a.75.75,0,0,0,.09.29.39.39,0,0,0,.18.18.89.89,0,0,0,.37.06,1,1,0,0,0,.3,0l.23-.06h0Z"/><path class="cls-1" d="M120.85,122.17a.94.94,0,0,1-.39.78,1.71,1.71,0,0,1-1.08.31,2.73,2.73,0,0,1-.72-.09,5.28,5.28,0,0,1-.54-.2v-.66h0a2.46,2.46,0,0,0,.62.33,2,2,0,0,0,.66.12,1.25,1.25,0,0,0,.6-.12.43.43,0,0,0,.22-.4.4.4,0,0,0-.12-.31,1.08,1.08,0,0,0-.45-.18l-.33-.07a3,3,0,0,1-.37-.08,1.29,1.29,0,0,1-.65-.35.91.91,0,0,1-.19-.59.93.93,0,0,1,.09-.4,1,1,0,0,1,.27-.34,1.23,1.23,0,0,1,.44-.24,2.31,2.31,0,0,1,.61-.08,2.72,2.72,0,0,1,.63.08,2.62,2.62,0,0,1,.54.18v.63h0a2.28,2.28,0,0,0-.54-.28,1.84,1.84,0,0,0-.64-.11,1.13,1.13,0,0,0-.54.12.39.39,0,0,0-.22.37.38.38,0,0,0,.13.32,1.17,1.17,0,0,0,.43.18l.36.07.34.07a1.26,1.26,0,0,1,.63.33A.82.82,0,0,1,120.85,122.17Z"/><polygon class="cls-5" points="121.26 100.16 56.46 62.74 56.46 92.67 43.5 100.16 43.5 40.3 108.3 77.71 108.3 47.78 121.26 40.3 121.26 100.16"/></svg>