<?xml version="1.0" encoding="UTF-8"?>
<svg width="72px" height="72px" viewBox="0 0 72 72" version="1.1" xmlns="http://www.w3.org/2000/svg" xmlns:xlink="http://www.w3.org/1999/xlink">
    <title>카카오톡 채널</title>
    <defs>
        <polygon id="path-1" points="0 0.138719491 43.6363636 0.138719491 43.6363636 46.7721967 0 46.7721967"></polygon>
    </defs>
    <g id="카카오톡-채널" stroke="none" stroke-width="1" fill="none" fill-rule="evenodd">
        <circle id="Oval" fill="#141414" cx="36" cy="36" r="36"></circle>
        <g id="Group-3" transform="translate(14.000000, 14.089438)">
            <mask id="mask-2" fill="white">
                <use xlink:href="#path-1"></use>
            </mask>
            <g id="Clip-2"></g>
            <path d="M21.8181818,0.138696675 C9.76818182,0.138696675 0,9.23007092 0,20.4446747 C0,26.7593776 3.09704545,32.4005608 7.95454545,36.1247685 L7.95454545,46.3754087 C7.95454545,46.6964257 8.315,46.884199 8.57636364,46.6991636 L17.54,40.3593635 C18.9236364,40.6153557 20.3538636,40.7506528 21.8181818,40.7506528 C33.8681818,40.7506528 43.6363636,31.6592786 43.6363636,20.4446747 C43.6363636,9.23007092 33.8681818,0.138696675 21.8181818,0.138696675" id="Fill-1" fill="#FFFFFF" mask="url(#mask-2)"></path>
        </g>
        <path d="M32.7303636,36.1312117 C32.0151364,37.8715937 30.3099091,39.0972534 28.3180909,39.0972534 C25.6821818,39.0972534 23.5453636,36.9521208 23.5453636,34.3059553 C23.5453636,31.6597897 25.6821818,29.5146571 28.3180909,29.5146571 C30.3099091,29.5146571 32.0151364,30.7403168 32.7303636,32.4806988 L36.7087727,32.4806988 C35.7896818,28.6839372 32.3828636,25.8641441 28.3180909,25.8641441 C23.5485455,25.8641441 19.6817273,29.7457802 19.6817273,34.5341123 C19.6817273,39.3224445 23.5485455,43.2040805 28.3180909,43.2040805 C32.5442273,43.2040805 36.0587727,40.1561304 36.8058182,36.1312117 L32.7303636,36.1312117 Z" id="Fill-4" fill="#141414"></path>
        <path d="M45.1363636,30.6554423 C43.93,30.6554423 42.9315909,31.2080387 42.1818182,32.0339673 L42.1818182,25.6359871 L38.7727273,25.6359871 L38.7727273,42.7477664 L42.1818182,42.7477664 L42.1818182,35.1686171 C42.4840909,34.4277911 43.1409091,33.393327 44.4545455,33.393327 C46.5,33.393327 46.5,35.6748976 46.5,35.9030547 L46.5,42.7477664 L49.9090909,42.7477664 L49.9090909,35.4467405 C49.9090909,33.8496411 49.2272727,30.6554423 45.1363636,30.6554423" id="Fill-6" fill="#141414"></path>
    </g>
</svg>