<svg xmlns="http://www.w3.org/2000/svg" viewBox="0 0 608.79 229.35"><defs><style>.cls-1{isolation:isolate;}.cls-2{fill:#141414;}.cls-3{font-size:13.42px;font-family:AppleSDGothicNeo-Light-KSCpc-EUC-H, Apple SD Gothic Neo;}.cls-3,.cls-4,.cls-5{fill:#fff;}.cls-5{mix-blend-mode:multiply;}.cls-6{fill:none;stroke:#fff;stroke-miterlimit:10;stroke-width:1.5px;}</style></defs><title>Asset 3</title><g class="cls-1"><g id="Layer_2" data-name="Layer 2"><g id="레이어_1" data-name="레이어 1"><rect class="cls-2" width="608.79" height="229.35" rx="114.67"/><text class="cls-3" transform="translate(439.02 86.7)">공식 후원</text><path class="cls-4" d="M120.78,108h10v50.59h-7.59l-21.68-30.93v30.93h-10V108h7.58l21.69,30.82Z"/><path class="cls-4" d="M150.12,149.07h21.32v9.54H140.15V108h30.93v9.54h-21v10.77h19.15v9.39H150.12Z"/><path class="cls-4" d="M217,158.61H205.63l-9.83-16.5L186,158.61H174.69l15.47-26L175.49,108h11.27l9.05,15.15,9-15.15h11.28l-14.66,24.6Z"/><path class="cls-4" d="M256,108v9.54H242.34v41.05h-10V117.56H218.78V108Z"/><path class="cls-4" d="M271.54,149.07h21.32v9.54h-31.3V108H292.5v9.54h-21v10.77h19.15v9.39H271.54Z"/><path class="cls-4" d="M327.62,158.61l-10.23-17.56h-7.55v17.56h-10V108H320.1a16.78,16.78,0,0,1,16.84,16.77,15.43,15.43,0,0,1-2.67,8.71,16.74,16.74,0,0,1-7.08,6l11.2,19.08Zm-17.78-41.27v15H320.1a6.36,6.36,0,0,0,4.85-2.2,7.57,7.57,0,0,0,2-5.31,7.46,7.46,0,0,0-2-5.28,6.43,6.43,0,0,0-4.85-2.17Z"/><path class="cls-4" d="M360.72,159.62a22.63,22.63,0,0,1-12.65-3.36,17.9,17.9,0,0,1-7.22-9.14l8.53-5q3,7.74,11.63,7.74c2.8,0,4.84-.51,6.14-1.52a4.77,4.77,0,0,0-.43-8,36.84,36.84,0,0,0-8.53-3.21,52.64,52.64,0,0,1-5.74-2,24.67,24.67,0,0,1-4.7-2.71,11,11,0,0,1-3.58-4.3,14.05,14.05,0,0,1-1.23-6.07,13.55,13.55,0,0,1,4.88-11A17.71,17.71,0,0,1,359.57,107a19.53,19.53,0,0,1,10.8,3,20.08,20.08,0,0,1,7.26,8.35l-8.38,4.84q-3-6.51-9.68-6.51a7.62,7.62,0,0,0-4.88,1.41,4.46,4.46,0,0,0-1.77,3.65,4.62,4.62,0,0,0,2,3.87q2,1.48,7.63,3.22L366,130c.79.27,1.87.68,3.25,1.23a20.49,20.49,0,0,1,3.18,1.56,25,25,0,0,1,2.56,1.95,10,10,0,0,1,2.21,2.53,14.41,14.41,0,0,1,1.3,3.14,14.24,14.24,0,0,1,.54,4A13.54,13.54,0,0,1,374,155.5Q368.9,159.63,360.72,159.62Z"/><path class="cls-4" d="M96.79,63.72h5V92.78H96v-23l-5.48,1.54-1.41-4.9Z"/><path class="cls-4" d="M105.29,63.72h18.77v4.86l-9.84,24.2h-6.06L117.7,69.2H105.29Z"/><path class="cls-4" d="M139.42,77.17h-4.69v8.64a2,2,0,0,0,.54,1.57,2.46,2.46,0,0,0,1.57.56,22.58,22.58,0,0,0,2.58,0v4.86c-3.68.41-6.28.07-7.79-1s-2.26-3.08-2.26-5.93V77.17h-3.61V72h3.61V67.83l5.36-1.62V72h4.69Z"/><path class="cls-4" d="M154.74,71.44a7.49,7.49,0,0,1,5.62,2.29A8.66,8.66,0,0,1,162.58,80V92.78h-5.35V80.7a4.27,4.27,0,0,0-1.13-3.18,4.07,4.07,0,0,0-3-1.1,4.43,4.43,0,0,0-3.33,1.29,5.41,5.41,0,0,0-1.24,3.86V92.78H143.2V63.72h5.35V74.35Q150.5,71.44,154.74,71.44Z"/><path class="cls-4" d="M439.42,114.92l1.51,5.88a9.54,9.54,0,0,0,.73.84l-2-7.81A7.81,7.81,0,0,0,439.42,114.92Zm.29-1.27,2.84,8.76c.22.16.44.3.67.44L440,112.9A6.09,6.09,0,0,0,439.71,113.65Zm3.28,3-2.35-5c-.11.16-.21.33-.31.51l5.47,11.62c.2,0,.39.07.59.09l-2.36-5A4.33,4.33,0,0,1,443,116.69Zm2.1,3.08,2.3,4.19a4.93,4.93,0,0,0,.55,0l-2.09-3.81A4,4,0,0,1,445.09,119.77Zm2.18.59a4.93,4.93,0,0,1-.55,0l2.2,3.46c.17,0,.34-.08.5-.12l-2.09-3.31Zm3.05-1.26,2.47,2.63.34-.35-2.48-2.64A2.82,2.82,0,0,1,450.32,119.1Zm4.88-3.27-11.12-7.06-.53.26,4.29,2.71a4.33,4.33,0,0,1,3.07,2l4.28,2.72c0-.12,0-.25,0-.38Zm-12.14-.78-2-3.68,2.11,3.34a3.57,3.57,0,0,1,.23-.57l-1.93-3,2.05,2.81a3.4,3.4,0,0,1,.28-.45l-1.92-2.65,2.05,2.49a4,4,0,0,1,.34-.37l-2-2.44,2.16,2.3a4.08,4.08,0,0,1,.39-.31l-2.19-2.33,2.36,2.22a4,4,0,0,1,.45-.25l-2.47-2.33,2.69,2.23a3.35,3.35,0,0,1,.56-.19l-2.94-2.42,3.25,2.36a3.64,3.64,0,0,1,.74-.07L443.55,109a8,8,0,0,0-2.91,2.65l2.3,4.19A4.38,4.38,0,0,1,443.06,115.05Zm-3.72,1a8,8,0,0,0,.77,3.42l-.75-3.94C439.35,115.68,439.34,115.86,439.34,116Zm.68-3.21,4.16,10.52c.21.09.42.16.63.23l-4.49-11.35Q440.16,112.52,440,112.82Zm13.12-2.12-6.5-2.57a6.38,6.38,0,0,0-1,.14l8.11,3.21A7.57,7.57,0,0,0,453.14,110.7Zm1.84,3.48-10.27-5.65-.61.23,11,6C455.08,114.6,455,114.39,455,114.18Zm-.62-1.71-8.86-4.17c-.25.06-.49.13-.73.21l9.89,4.65A7.17,7.17,0,0,0,454.36,112.47Zm-7.09-4.37h-.22l5.06,1.64A7.92,7.92,0,0,0,447.27,108.1Zm4.24,8.8,3,2.45c.07-.16.14-.32.2-.48l-3.09-2.55A3.85,3.85,0,0,1,451.51,116.9Zm-.44,1.22,2.67,2.5.28-.41-2.73-2.57C451.22,117.8,451.15,118,451.07,118.12Zm.49-2.66,3.41,2.47c0-.17.08-.35.11-.53l-3.68-2.68A4.42,4.42,0,0,1,451.56,115.46Zm-2.24,4.38,2.32,2.81.41-.29-2.3-2.78A2.73,2.73,0,0,1,449.32,119.84Zm-1.2.44,2.23,3.07.45-.22-2.17-3A4.84,4.84,0,0,1,448.12,120.28Z"/><path class="cls-4" d="M451.6,115.93l3.6,7.87v-1.19l-3.6-7.87Zm0-3.18,3.6,9.33V120.7l-3.6-9.32Zm3-4.65.6,2.63V108.1Zm-7.33,23.75a7.93,7.93,0,0,0,2-.26l-2-.22Zm4.33-8.62,2.81,3.53-2.81-3.12v.28c0,.14,0,.29,0,.44L454,127.1l-2.5-2.47a5.07,5.07,0,0,1-.13.56l2.28,2.26-2.35-2.06a3.48,3.48,0,0,1-.21.48l2.24,1.95L451.05,126a3,3,0,0,1-.27.42l2.28,1.76-2.38-1.62c-.11.13-.22.26-.33.37l2.44,1.66-2.58-1.53a3.36,3.36,0,0,1-.41.34l2.73,1.62-2.91-1.5a2.9,2.9,0,0,1-.52.29l3.21,1.65L448.83,128a4.79,4.79,0,0,1-.74.21l4,1.77-4.6-1.7h-.24v.43l4.6,1.7a7.94,7.94,0,0,0,2.92-3.93l-3.19-4Zm0-15.13v.3l3.6,11.32v-1.63l-3.17-10Zm1.54,0,2.06,8.15v-2l-1.54-6.13Zm-5.87,22.22,3.35.79a5.19,5.19,0,0,0,.66-.35l-4-.95Zm0-.8,4.05,1.22c.19-.11.37-.23.54-.35L447.27,129Zm0,1.58,2.33.4a7.08,7.08,0,0,0,.91-.34l-3.24-.56Zm4.33-12.74,3.53,6.62c0-.3.06-.61.07-.92l-3.6-6.75Zm0,1.94,3.38,5.5c0-.23.1-.47.14-.72l-3.52-5.73Zm0,1.59,3.19,4.56c.07-.2.13-.41.18-.61L451.6,121Z"/><path class="cls-4" d="M463.29,123.88l5.88-1.51a7.24,7.24,0,0,0,.84-.72l-7.8,2A7.67,7.67,0,0,0,463.29,123.88ZM462,123.6l8.76-2.85a6.88,6.88,0,0,0,.44-.66l-10,3.23C461.52,123.42,461.77,123.52,462,123.6Zm3-3.29-5,2.36c.17.1.34.21.51.3l11.63-5.47a5.58,5.58,0,0,0,.09-.59l-5,2.36A4.28,4.28,0,0,1,465.06,120.31Zm3.08-2.09,4.2-2.31,0-.55-3.81,2.1A5.28,5.28,0,0,1,468.14,118.22Zm.6-2.19a5.09,5.09,0,0,1,0,.56l3.47-2.2c0-.17-.08-.34-.13-.51l-3.3,2.09Zm-1.26-3,2.63-2.47-.36-.35-2.64,2.48Zm-3.28-4.88-7.05,11.12c.08.17.16.35.25.52l2.72-4.28a4.37,4.37,0,0,1,1.95-3.08l2.72-4.28h-.59Zm-.78,12.14-3.67,2,3.33-2.12a5.42,5.42,0,0,1-.56-.22l-3,1.92,2.81-2-.44-.29-2.66,1.93,2.49-2.06a3.92,3.92,0,0,1-.37-.34l-2.44,2,2.31-2.16a3.52,3.52,0,0,1-.31-.39l-2.33,2.19,2.21-2.36c-.09-.15-.17-.3-.25-.46l-2.32,2.48,2.22-2.7a5.05,5.05,0,0,1-.18-.55l-2.43,2.93,2.36-3.24a4.65,4.65,0,0,1-.07-.75l-2.68,3.69a8,8,0,0,0,2.66,2.91l4.19-2.3A4.49,4.49,0,0,1,463.42,120.25Zm1,3.71a7.79,7.79,0,0,0,3.41-.77l-3.93.75A4.43,4.43,0,0,0,464.41,124Zm-3.21-.68,10.52-4.16c.08-.2.16-.41.23-.62L460.6,123A6.63,6.63,0,0,0,461.2,123.28Zm-2.12-13.12-2.58,6.5c0,.34.08.67.14,1l3.22-8.12A7.86,7.86,0,0,0,459.08,110.16Zm3.47-1.84L456.9,118.6a6.25,6.25,0,0,0,.24.6l6.05-11C463,108.23,462.76,108.27,462.55,108.32Zm-1.71.63-4.16,8.85a6.05,6.05,0,0,0,.2.73l4.66-9.89A6.21,6.21,0,0,0,460.84,109ZM456.48,116v.22l1.64-5A7.89,7.89,0,0,0,456.48,116Zm8.79-4.24,2.45-3-.47-.2-2.56,3.08A5.4,5.4,0,0,1,465.27,111.79Zm1.22.45,2.51-2.67-.42-.28L466,112A2.86,2.86,0,0,1,466.49,112.24Zm-2.66-.5,2.48-3.41-.53-.11-2.68,3.69A4.55,4.55,0,0,1,463.83,111.74Zm4.39,2.24,2.8-2.32-.28-.41L468,113.56A3,3,0,0,1,468.22,114Zm.43,1.21,3.07-2.23c-.06-.16-.14-.31-.21-.46l-3,2.17A4.39,4.39,0,0,1,468.65,115.19Z"/><path class="cls-4" d="M468.73,112.7l3.61,4.53v-.79l-3.61-4.54Zm0,1.76,3.61,4v-.74l-3.61-4Zm0-3.81,3.61,5.14v-.86l-3.61-5.15Zm0,13.31h.87l-.87-.32Zm1.55-15.82,2.06,3.85v-1l-1.5-2.8ZM468.73,116l3.61,3.55v-.69l-3.61-3.55Zm0-7.86v.07l3.61,5.87v-1l-3.06-5Zm3.59,0h-.55l.57,1.23v-1.19Zm-3.59,9.23,3.61,3.14v-.65l-3.61-3.15Zm0,6.12L470,124h1.42l-2.71-1Zm0-1.77,3.61,1.86V123l-3.61-1.86Zm0,.91,3,1.33h.57v-.29l-3.61-1.58Zm0-1.87,3.61,2.14v-.58l-3.61-2.14Zm0-2.16,3.61,2.78v-.63L468.73,118Zm0,1.12,3.61,2.45v-.6l-3.61-2.45Z"/><path class="cls-4" d="M483.21,108.18l-5.88,1.51a6.46,6.46,0,0,0-.84.73l7.8-2A7.67,7.67,0,0,0,483.21,108.18Zm1.27.29-8.76,2.85a7.66,7.66,0,0,0-.45.66l10-3.23A6.61,6.61,0,0,0,484.48,108.47Zm-3,3.28,5-2.35-.51-.31-11.63,5.47c0,.2-.07.39-.09.59l5-2.36A4.32,4.32,0,0,1,481.44,111.75Zm-3.09,2.1-4.19,2.3,0,.55,3.81-2.09A4.78,4.78,0,0,1,478.35,113.85Zm-.59,2.18a3.31,3.31,0,0,1,0-.55l-3.47,2.2c0,.17.08.34.13.5l3.3-2.09Zm1.26,3-2.63,2.47c.12.11.23.23.36.34l2.64-2.48A2.91,2.91,0,0,1,479,119.08ZM482.3,124l7.05-11.12c-.08-.18-.16-.35-.25-.52l-2.72,4.28a4.33,4.33,0,0,1-1.95,3.07L481.71,124h.59Zm.78-12.14,3.67-2-3.33,2.11a5.48,5.48,0,0,1,.56.23l3-1.93-2.82,2.05a3.46,3.46,0,0,1,.45.29l2.66-1.93-2.49,2,.37.34,2.43-2-2.3,2.16a4.08,4.08,0,0,1,.31.39l2.33-2.19-2.21,2.36c.09.15.17.3.25.45l2.32-2.47-2.23,2.69a3.58,3.58,0,0,1,.19.55L488.7,112l-2.35,3.25a4.53,4.53,0,0,1,.07.74l2.68-3.69a8.08,8.08,0,0,0-2.66-2.91l-4.19,2.3A4.61,4.61,0,0,1,483.08,111.82Zm-1-3.72a7.93,7.93,0,0,0-3.41.77l3.93-.75Zm3.21.68-10.52,4.16c-.08.21-.16.41-.23.63l11.35-4.5Zm2.12,13.13L490,115.4a7.87,7.87,0,0,0-.13-1l-3.22,8.11A7.77,7.77,0,0,0,487.42,121.91ZM484,123.74l5.65-10.27c-.08-.21-.15-.41-.24-.61l-6.05,11C483.53,123.84,483.74,123.79,484,123.74Zm1.7-.62,4.17-8.86c-.06-.25-.12-.49-.2-.73L485,123.42A7.17,7.17,0,0,0,485.65,123.12ZM490,116v-.22l-1.65,5.06A7.86,7.86,0,0,0,490,116Zm-8.79,4.24-2.45,3,.47.2,2.56-3.09A3.68,3.68,0,0,1,481.23,120.27Zm-1.22-.44-2.51,2.67.42.28,2.56-2.73Zm2.66.49-2.48,3.41a5,5,0,0,0,.53.11l2.68-3.68A4.52,4.52,0,0,1,482.67,120.32Zm-4.39-2.24-2.8,2.32c.09.14.18.28.28.41l2.78-2.3C478.45,118.37,478.36,118.23,478.28,118.08Zm-.43-1.2-3.07,2.23a4.69,4.69,0,0,0,.21.46l3-2.18A4.77,4.77,0,0,1,477.85,116.88Z"/><path class="cls-4" d="M474.16,119.08l1.59,4.88h.52l-2.11-6.48Zm0-3.56,3.35,8.44h.26v-.69l-3.61-9.1Zm3.61-15.28h-3.61v4.36l3.61,3v-.65l-3.6-3,3.6,2.61V106l-3.31-2.4,3.31,2.1v-.59l-3-1.93,3,1.67v-.56l-2.8-1.54,2.8,1.32v-.55l-2.59-1.22,2.59,1v-.53l-2.41-1,2.41.78v-.52l-2.26-.73,2.26.58v-.52l-2.14-.54,2.14.4v-.5l-2-.39,2,.26ZM474.16,124h.67l-.67-1.84Zm0-11,3.61,7.66v-1.16l-3.61-7.66Zm0-5.89,3.61,4.35v-.77l-3.61-4.36Zm0-1.73,3.61,3.38V108l-3.61-3.38Zm0,.81,3.61,3.83v-.72l-3.61-3.84Zm0,3.28,3.61,5.67v-.92l-3.61-5.68Zm0-1.29,3.61,5v-.84l-3.61-5Zm0,2.85,3.61,6.55v-1l-3.61-6.56Z"/><path class="cls-4" d="M496.62,114.92l1.51,5.88a6.46,6.46,0,0,0,.73.84l-2-7.81A8.12,8.12,0,0,0,496.62,114.92Zm.29-1.27,2.84,8.76a6,6,0,0,0,.67.44l-3.24-9.95C497.08,113.15,497,113.39,496.91,113.65Zm3.28,3-2.35-5c-.11.17-.22.34-.31.51L503,123.83a5.59,5.59,0,0,0,.59.08l-2.36-5A4.36,4.36,0,0,1,500.19,116.69Zm2.1,3.08,2.3,4.19.55,0-2.1-3.82A4.26,4.26,0,0,1,502.29,119.77Zm2.18.6a4.91,4.91,0,0,1-.55,0l2.2,3.46a4.05,4.05,0,0,0,.5-.12l-2.09-3.3Zm3-1.26,2.46,2.63.35-.36-2.48-2.64C507.75,118.87,507.63,119,507.52,119.11Zm4.88-3.28-11.12-7c-.18.07-.35.16-.53.25l4.29,2.72a4.32,4.32,0,0,1,3.07,2l4.28,2.71c0-.12,0-.25,0-.37Zm-12.14-.78-2-3.67,2.11,3.33a3.57,3.57,0,0,1,.23-.57l-1.93-3,2.05,2.81a4.08,4.08,0,0,1,.28-.44l-1.93-2.66,2.06,2.49c.11-.13.22-.25.34-.37l-2-2.44,2.17,2.3a3.57,3.57,0,0,1,.38-.3l-2.19-2.33,2.37,2.21a3.25,3.25,0,0,1,.45-.25l-2.48-2.33,2.7,2.23a5.05,5.05,0,0,1,.55-.18l-2.93-2.43,3.25,2.36a4.53,4.53,0,0,1,.74-.07L500.75,109a7.91,7.91,0,0,0-2.91,2.66l2.3,4.18A3.78,3.78,0,0,1,500.26,115.05Zm-3.72,1a8,8,0,0,0,.77,3.41l-.75-3.94C496.55,115.69,496.54,115.86,496.54,116Zm.68-3.21,4.16,10.51c.2.09.41.16.62.24l-4.49-11.35C497.41,112.42,497.31,112.62,497.22,112.83Zm13.12-2.12-6.5-2.58a7.87,7.87,0,0,0-1,.14l8.11,3.21A7.73,7.73,0,0,0,510.34,110.71Zm1.84,3.47-10.28-5.65-.6.23,11,6C512.27,114.6,512.23,114.39,512.18,114.18Zm-.63-1.71-8.85-4.16a6.05,6.05,0,0,0-.73.2l9.89,4.66A6.21,6.21,0,0,0,511.55,112.47Zm-7.08-4.37h-.22l5.06,1.64A7.92,7.92,0,0,0,504.47,108.1Zm4.24,8.8,3,2.45c.08-.15.14-.31.21-.48l-3.09-2.55A5.4,5.4,0,0,1,508.71,116.9Zm-.45,1.22,2.68,2.51c.09-.14.19-.28.27-.42l-2.72-2.56A4.09,4.09,0,0,1,508.26,118.12Zm.5-2.66,3.41,2.48c0-.18.08-.36.11-.53l-3.68-2.68A4.3,4.3,0,0,1,508.76,115.46Zm-2.24,4.39,2.32,2.8.41-.28-2.3-2.78C506.81,119.68,506.67,119.77,506.52,119.85Zm-1.2.43,2.22,3.07.46-.21-2.17-3A4.77,4.77,0,0,1,505.32,120.28Z"/><path class="cls-4" d="M512.4,124v0l-3.64-13.83v2.12L511.85,124Zm0-16h-.47l.47.56Zm0,11.11-3.53-10.65,3.53,8.76v-1.44l-3-7.52,3,6.34v-1.25L509.85,108l2.55,4.57v-1.11L510.46,108h-1.7v1.84l3.64,11ZM508.77,124h.54l-.55-4.18V124Zm3.63-15.24-.56-.76h-.67l1.23,1.67Zm0,1.23-1.28-2h-.64l1.92,3Zm-1.56,14-2.08-10.55v2.79l1.53,7.76Z"/><path class="cls-4" d="M491.48,108v0l3.64,13.83v-2.12L492,108Zm0,16H492l-.47-.56Zm0-11.1L495,123.5l-3.53-8.76v1.44l3,7.52-3-6.34v1.25l2.54,5.33-2.54-4.56v1.1l1.94,3.48h1.7v-1.84l-3.64-11Zm3.63-4.9h-.67l.68,4.31V108Zm-3.63,15.24.56.76h.67l-1.23-1.67Zm0-1.23,1.28,2h.64l-1.92-3ZM493,108l2.08,10.55v-2.79L493.59,108Z"/><path class="cls-4" d="M517.41,124a2.14,2.14,0,0,0,1.58-.65,2.2,2.2,0,0,0,.65-1.59,2.14,2.14,0,0,0-.65-1.57,2.29,2.29,0,0,0-2.44-.49l1.76.56-2-.45a2.81,2.81,0,0,0-.49.38l0,0,2.43.52-2.58-.35a2.13,2.13,0,0,0-.29.47l2.82.39-2.9-.18a2.1,2.1,0,0,0-.09.5l3,.18-3,0a2.22,2.22,0,0,0,.06.51l2.9,0-2.84.24a2.92,2.92,0,0,0,.25.5l2.63-.23-2.49.4a1.07,1.07,0,0,0,.14.16,2,2,0,0,0,.36.29l2.06-.35-1.85.48A2.24,2.24,0,0,0,517.41,124Z"/><path class="cls-5" d="M439.42,114.92l1.51,5.88a9.54,9.54,0,0,0,.73.84l-2-7.81A7.81,7.81,0,0,0,439.42,114.92Zm.29-1.27,2.84,8.76c.22.16.44.3.67.44L440,112.9A6.09,6.09,0,0,0,439.71,113.65Zm3.28,3-2.35-5c-.11.16-.21.33-.31.51l5.47,11.62c.2,0,.39.07.59.09l-2.36-5A4.33,4.33,0,0,1,443,116.69Zm2.1,3.08,2.3,4.19a4.93,4.93,0,0,0,.55,0l-2.09-3.81A4,4,0,0,1,445.09,119.77Zm2.18.59a4.93,4.93,0,0,1-.55,0l2.2,3.46c.17,0,.34-.08.5-.12l-2.09-3.31Zm3.05-1.26,2.47,2.63.34-.35-2.48-2.64A2.82,2.82,0,0,1,450.32,119.1Zm4.88-3.27-11.12-7.06-.53.26,4.29,2.71a4.33,4.33,0,0,1,3.07,2l4.28,2.72c0-.12,0-.25,0-.38Zm-12.14-.78-2-3.68,2.11,3.34a3.57,3.57,0,0,1,.23-.57l-1.93-3,2.05,2.81a3.4,3.4,0,0,1,.28-.45l-1.92-2.65,2.05,2.49a4,4,0,0,1,.34-.37l-2-2.44,2.16,2.3a4.08,4.08,0,0,1,.39-.31l-2.19-2.33,2.36,2.22a4,4,0,0,1,.45-.25l-2.47-2.33,2.69,2.23a3.35,3.35,0,0,1,.56-.19l-2.94-2.42,3.25,2.36a3.64,3.64,0,0,1,.74-.07L443.55,109a8,8,0,0,0-2.91,2.65l2.3,4.19A4.38,4.38,0,0,1,443.06,115.05Zm-3.72,1a8,8,0,0,0,.77,3.42l-.75-3.94C439.35,115.68,439.34,115.86,439.34,116Zm.68-3.21,4.16,10.52c.21.09.42.16.63.23l-4.49-11.35Q440.16,112.52,440,112.82Zm13.12-2.12-6.5-2.57a6.38,6.38,0,0,0-1,.14l8.11,3.21A7.57,7.57,0,0,0,453.14,110.7Zm1.84,3.48-10.27-5.65-.61.23,11,6C455.08,114.6,455,114.39,455,114.18Zm-.62-1.71-8.86-4.17c-.25.06-.49.13-.73.21l9.89,4.65A7.17,7.17,0,0,0,454.36,112.47Zm-7.09-4.37h-.22l5.06,1.64A7.92,7.92,0,0,0,447.27,108.1Zm4.24,8.8,3,2.45c.07-.16.14-.32.2-.48l-3.09-2.55A3.85,3.85,0,0,1,451.51,116.9Zm-.44,1.22,2.67,2.5.28-.41-2.73-2.57C451.22,117.8,451.15,118,451.07,118.12Zm.49-2.66,3.41,2.47c0-.17.08-.35.11-.53l-3.68-2.68A4.42,4.42,0,0,1,451.56,115.46Zm-2.24,4.38,2.32,2.81.41-.29-2.3-2.78A2.73,2.73,0,0,1,449.32,119.84Zm-1.2.44,2.23,3.07.45-.22-2.17-3A4.84,4.84,0,0,1,448.12,120.28Z"/><path class="cls-5" d="M451.6,115.93l3.6,7.87v-1.19l-3.6-7.87Zm0-3.18,3.6,9.33V120.7l-3.6-9.32Zm3-4.65.6,2.63V108.1Zm-7.33,23.75a7.93,7.93,0,0,0,2-.26l-2-.22Zm4.33-8.62,2.81,3.53-2.81-3.12v.28c0,.14,0,.29,0,.44L454,127.1l-2.5-2.47a5.07,5.07,0,0,1-.13.56l2.28,2.26-2.35-2.06a3.48,3.48,0,0,1-.21.48l2.24,1.95L451.05,126a3,3,0,0,1-.27.42l2.28,1.76-2.38-1.62c-.11.13-.22.26-.33.37l2.44,1.66-2.58-1.53a3.36,3.36,0,0,1-.41.34l2.73,1.62-2.91-1.5a2.9,2.9,0,0,1-.52.29l3.21,1.65L448.83,128a4.79,4.79,0,0,1-.74.21l4,1.77-4.6-1.7h-.24v.43l4.6,1.7a7.94,7.94,0,0,0,2.92-3.93l-3.19-4Zm0-15.13v.3l3.6,11.32v-1.63l-3.17-10Zm1.54,0,2.06,8.15v-2l-1.54-6.13Zm-5.87,22.22,3.35.79a5.19,5.19,0,0,0,.66-.35l-4-.95Zm0-.8,4.05,1.22c.19-.11.37-.23.54-.35L447.27,129Zm0,1.58,2.33.4a7.08,7.08,0,0,0,.91-.34l-3.24-.56Zm4.33-12.74,3.53,6.62c0-.3.06-.61.07-.92l-3.6-6.75Zm0,1.94,3.38,5.5c0-.23.1-.47.14-.72l-3.52-5.73Zm0,1.59,3.19,4.56c.07-.2.13-.41.18-.61L451.6,121Z"/><path class="cls-5" d="M463.29,123.88l5.88-1.51a7.24,7.24,0,0,0,.84-.72l-7.8,2A7.67,7.67,0,0,0,463.29,123.88ZM462,123.6l8.76-2.85a6.88,6.88,0,0,0,.44-.66l-10,3.23C461.52,123.42,461.77,123.52,462,123.6Zm3-3.29-5,2.36c.17.1.34.21.51.3l11.63-5.47a5.58,5.58,0,0,0,.09-.59l-5,2.36A4.28,4.28,0,0,1,465.06,120.31Zm3.08-2.09,4.2-2.31,0-.55-3.81,2.1A5.28,5.28,0,0,1,468.14,118.22Zm.6-2.19a5.09,5.09,0,0,1,0,.56l3.47-2.2c0-.17-.08-.34-.13-.51l-3.3,2.09Zm-1.26-3,2.63-2.47-.36-.35-2.64,2.48Zm-3.28-4.88-7.05,11.12c.08.17.16.35.25.52l2.72-4.28a4.37,4.37,0,0,1,1.95-3.08l2.72-4.28h-.59Zm-.78,12.14-3.67,2,3.33-2.12a5.42,5.42,0,0,1-.56-.22l-3,1.92,2.81-2-.44-.29-2.66,1.93,2.49-2.06a3.92,3.92,0,0,1-.37-.34l-2.44,2,2.31-2.16a3.52,3.52,0,0,1-.31-.39l-2.33,2.19,2.21-2.36c-.09-.15-.17-.3-.25-.46l-2.32,2.48,2.22-2.7a5.05,5.05,0,0,1-.18-.55l-2.43,2.93,2.36-3.24a4.65,4.65,0,0,1-.07-.75l-2.68,3.69a8,8,0,0,0,2.66,2.91l4.19-2.3A4.49,4.49,0,0,1,463.42,120.25Zm1,3.71a7.79,7.79,0,0,0,3.41-.77l-3.93.75A4.43,4.43,0,0,0,464.41,124Zm-3.21-.68,10.52-4.16c.08-.2.16-.41.23-.62L460.6,123A6.63,6.63,0,0,0,461.2,123.28Zm-2.12-13.12-2.58,6.5c0,.34.08.67.14,1l3.22-8.12A7.86,7.86,0,0,0,459.08,110.16Zm3.47-1.84L456.9,118.6a6.25,6.25,0,0,0,.24.6l6.05-11C463,108.23,462.76,108.27,462.55,108.32Zm-1.71.63-4.16,8.85a6.05,6.05,0,0,0,.2.73l4.66-9.89A6.21,6.21,0,0,0,460.84,109ZM456.48,116v.22l1.64-5A7.89,7.89,0,0,0,456.48,116Zm8.79-4.24,2.45-3-.47-.2-2.56,3.08A5.4,5.4,0,0,1,465.27,111.79Zm1.22.45,2.51-2.67-.42-.28L466,112A2.86,2.86,0,0,1,466.49,112.24Zm-2.66-.5,2.48-3.41-.53-.11-2.68,3.69A4.55,4.55,0,0,1,463.83,111.74Zm4.39,2.24,2.8-2.32-.28-.41L468,113.56A3,3,0,0,1,468.22,114Zm.43,1.21,3.07-2.23c-.06-.16-.14-.31-.21-.46l-3,2.17A4.39,4.39,0,0,1,468.65,115.19Z"/><path class="cls-5" d="M468.73,112.7l3.61,4.53v-.79l-3.61-4.54Zm0,1.76,3.61,4v-.74l-3.61-4Zm0-3.81,3.61,5.14v-.86l-3.61-5.15Zm0,13.31h.87l-.87-.32Zm1.55-15.82,2.06,3.85v-1l-1.5-2.8ZM468.73,116l3.61,3.55v-.69l-3.61-3.55Zm0-7.86v.07l3.61,5.87v-1l-3.06-5Zm3.59,0h-.55l.57,1.23v-1.19Zm-3.59,9.23,3.61,3.14v-.65l-3.61-3.15Zm0,6.12L470,124h1.42l-2.71-1Zm0-1.77,3.61,1.86V123l-3.61-1.86Zm0,.91,3,1.33h.57v-.29l-3.61-1.58Zm0-1.87,3.61,2.14v-.58l-3.61-2.14Zm0-2.16,3.61,2.78v-.63L468.73,118Zm0,1.12,3.61,2.45v-.6l-3.61-2.45Z"/><path class="cls-5" d="M483.21,108.18l-5.88,1.51a6.46,6.46,0,0,0-.84.73l7.8-2A7.67,7.67,0,0,0,483.21,108.18Zm1.27.29-8.76,2.85a7.66,7.66,0,0,0-.45.66l10-3.23A6.61,6.61,0,0,0,484.48,108.47Zm-3,3.28,5-2.35-.51-.31-11.63,5.47c0,.2-.07.39-.09.59l5-2.36A4.32,4.32,0,0,1,481.44,111.75Zm-3.09,2.1-4.19,2.3,0,.55,3.81-2.09A4.78,4.78,0,0,1,478.35,113.85Zm-.59,2.18a3.31,3.31,0,0,1,0-.55l-3.47,2.2c0,.17.08.34.13.5l3.3-2.09Zm1.26,3-2.63,2.47c.12.11.23.23.36.34l2.64-2.48A2.91,2.91,0,0,1,479,119.08ZM482.3,124l7.05-11.12c-.08-.18-.16-.35-.25-.52l-2.72,4.28a4.33,4.33,0,0,1-1.95,3.07L481.71,124h.59Zm.78-12.14,3.67-2-3.33,2.11a5.48,5.48,0,0,1,.56.23l3-1.93-2.82,2.05a3.46,3.46,0,0,1,.45.29l2.66-1.93-2.49,2,.37.34,2.43-2-2.3,2.16a4.08,4.08,0,0,1,.31.39l2.33-2.19-2.21,2.36c.09.15.17.3.25.45l2.32-2.47-2.23,2.69a3.58,3.58,0,0,1,.19.55L488.7,112l-2.35,3.25a4.53,4.53,0,0,1,.07.74l2.68-3.69a8.08,8.08,0,0,0-2.66-2.91l-4.19,2.3A4.61,4.61,0,0,1,483.08,111.82Zm-1-3.72a7.93,7.93,0,0,0-3.41.77l3.93-.75Zm3.21.68-10.52,4.16c-.08.21-.16.41-.23.63l11.35-4.5Zm2.12,13.13L490,115.4a7.87,7.87,0,0,0-.13-1l-3.22,8.11A7.77,7.77,0,0,0,487.42,121.91ZM484,123.74l5.65-10.27c-.08-.21-.15-.41-.24-.61l-6.05,11C483.53,123.84,483.74,123.79,484,123.74Zm1.7-.62,4.17-8.86c-.06-.25-.12-.49-.2-.73L485,123.42A7.17,7.17,0,0,0,485.65,123.12ZM490,116v-.22l-1.65,5.06A7.86,7.86,0,0,0,490,116Zm-8.79,4.24-2.45,3,.47.2,2.56-3.09A3.68,3.68,0,0,1,481.23,120.27Zm-1.22-.44-2.51,2.67.42.28,2.56-2.73Zm2.66.49-2.48,3.41a5,5,0,0,0,.53.11l2.68-3.68A4.52,4.52,0,0,1,482.67,120.32Zm-4.39-2.24-2.8,2.32c.09.14.18.28.28.41l2.78-2.3C478.45,118.37,478.36,118.23,478.28,118.08Zm-.43-1.2-3.07,2.23a4.69,4.69,0,0,0,.21.46l3-2.18A4.77,4.77,0,0,1,477.85,116.88Z"/><path class="cls-5" d="M474.16,119.08l1.59,4.88h.52l-2.11-6.48Zm0-3.56,3.35,8.44h.26v-.69l-3.61-9.1Zm3.61-15.28h-3.61v4.36l3.61,3v-.65l-3.6-3,3.6,2.61V106l-3.31-2.4,3.31,2.1v-.59l-3-1.93,3,1.67v-.56l-2.8-1.54,2.8,1.32v-.55l-2.59-1.22,2.59,1v-.53l-2.41-1,2.41.78v-.52l-2.26-.73,2.26.58v-.52l-2.14-.54,2.14.4v-.5l-2-.39,2,.26ZM474.16,124h.67l-.67-1.84Zm0-11,3.61,7.66v-1.16l-3.61-7.66Zm0-5.89,3.61,4.35v-.77l-3.61-4.36Zm0-1.73,3.61,3.38V108l-3.61-3.38Zm0,.81,3.61,3.83v-.72l-3.61-3.84Zm0,3.28,3.61,5.67v-.92l-3.61-5.68Zm0-1.29,3.61,5v-.84l-3.61-5Zm0,2.85,3.61,6.55v-1l-3.61-6.56Z"/><path class="cls-5" d="M496.62,114.92l1.51,5.88a6.46,6.46,0,0,0,.73.84l-2-7.81A8.12,8.12,0,0,0,496.62,114.92Zm.29-1.27,2.84,8.76a6,6,0,0,0,.67.44l-3.24-9.95C497.08,113.15,497,113.39,496.91,113.65Zm3.28,3-2.35-5c-.11.17-.22.34-.31.51L503,123.83a5.59,5.59,0,0,0,.59.08l-2.36-5A4.36,4.36,0,0,1,500.19,116.69Zm2.1,3.08,2.3,4.19.55,0-2.1-3.82A4.26,4.26,0,0,1,502.29,119.77Zm2.18.6a4.91,4.91,0,0,1-.55,0l2.2,3.46a4.05,4.05,0,0,0,.5-.12l-2.09-3.3Zm3-1.26,2.46,2.63.35-.36-2.48-2.64C507.75,118.87,507.63,119,507.52,119.11Zm4.88-3.28-11.12-7c-.18.07-.35.16-.53.25l4.29,2.72a4.32,4.32,0,0,1,3.07,2l4.28,2.71c0-.12,0-.25,0-.37Zm-12.14-.78-2-3.67,2.11,3.33a3.57,3.57,0,0,1,.23-.57l-1.93-3,2.05,2.81a4.08,4.08,0,0,1,.28-.44l-1.93-2.66,2.06,2.49c.11-.13.22-.25.34-.37l-2-2.44,2.17,2.3a3.57,3.57,0,0,1,.38-.3l-2.19-2.33,2.37,2.21a3.25,3.25,0,0,1,.45-.25l-2.48-2.33,2.7,2.23a5.05,5.05,0,0,1,.55-.18l-2.93-2.43,3.25,2.36a4.53,4.53,0,0,1,.74-.07L500.75,109a7.91,7.91,0,0,0-2.91,2.66l2.3,4.18A3.78,3.78,0,0,1,500.26,115.05Zm-3.72,1a8,8,0,0,0,.77,3.41l-.75-3.94C496.55,115.69,496.54,115.86,496.54,116Zm.68-3.21,4.16,10.51c.2.09.41.16.62.24l-4.49-11.35C497.41,112.42,497.31,112.62,497.22,112.83Zm13.12-2.12-6.5-2.58a7.87,7.87,0,0,0-1,.14l8.11,3.21A7.73,7.73,0,0,0,510.34,110.71Zm1.84,3.47-10.28-5.65-.6.23,11,6C512.27,114.6,512.23,114.39,512.18,114.18Zm-.63-1.71-8.85-4.16a6.05,6.05,0,0,0-.73.2l9.89,4.66A6.21,6.21,0,0,0,511.55,112.47Zm-7.08-4.37h-.22l5.06,1.64A7.92,7.92,0,0,0,504.47,108.1Zm4.24,8.8,3,2.45c.08-.15.14-.31.21-.48l-3.09-2.55A5.4,5.4,0,0,1,508.71,116.9Zm-.45,1.22,2.68,2.51c.09-.14.19-.28.27-.42l-2.72-2.56A4.09,4.09,0,0,1,508.26,118.12Zm.5-2.66,3.41,2.48c0-.18.08-.36.11-.53l-3.68-2.68A4.3,4.3,0,0,1,508.76,115.46Zm-2.24,4.39,2.32,2.8.41-.28-2.3-2.78C506.81,119.68,506.67,119.77,506.52,119.85Zm-1.2.43,2.22,3.07.46-.21-2.17-3A4.77,4.77,0,0,1,505.32,120.28Z"/><path class="cls-5" d="M512.4,124v0l-3.64-13.83v2.12L511.85,124Zm0-16h-.47l.47.56Zm0,11.11-3.53-10.65,3.53,8.76v-1.44l-3-7.52,3,6.34v-1.25L509.85,108l2.55,4.57v-1.11L510.46,108h-1.7v1.84l3.64,11ZM508.77,124h.54l-.55-4.18V124Zm3.63-15.24-.56-.76h-.67l1.23,1.67Zm0,1.23-1.28-2h-.64l1.92,3Zm-1.56,14-2.08-10.55v2.79l1.53,7.76Z"/><path class="cls-5" d="M491.48,108v0l3.64,13.83v-2.12L492,108Zm0,16H492l-.47-.56Zm0-11.1L495,123.5l-3.53-8.76v1.44l3,7.52-3-6.34v1.25l2.54,5.33-2.54-4.56v1.1l1.94,3.48h1.7v-1.84l-3.64-11Zm3.63-4.9h-.67l.68,4.31V108Zm-3.63,15.24.56.76h.67l-1.23-1.67Zm0-1.23,1.28,2h.64l-1.92-3ZM493,108l2.08,10.55v-2.79L493.59,108Z"/><path class="cls-4" d="M517.41,124a2.14,2.14,0,0,0,1.58-.65,2.2,2.2,0,0,0,.65-1.59,2.14,2.14,0,0,0-.65-1.57,2.29,2.29,0,0,0-2.44-.49l1.76.56-2-.45a2.81,2.81,0,0,0-.49.38l0,0,2.43.52-2.58-.35a2.13,2.13,0,0,0-.29.47l2.82.39-2.9-.18a2.1,2.1,0,0,0-.09.5l3,.18-3,0a2.22,2.22,0,0,0,.06.51l2.9,0-2.84.24a2.92,2.92,0,0,0,.25.5l2.63-.23-2.49.4a1.07,1.07,0,0,0,.14.16,2,2,0,0,0,.36.29l2.06-.35-1.85.48A2.24,2.24,0,0,0,517.41,124Z"/><path class="cls-4" d="M443.79,150.81a1.13,1.13,0,0,1-.34-.91v-5.13h3v-2.18h-3v-2.27h-1.86l-.84,2.25-1.6,1v1.23h1.39v5.13a3.84,3.84,0,0,0,.8,2.64,3.27,3.27,0,0,0,2.53.88,6.4,6.4,0,0,0,2.67-.49v-2.16a6.34,6.34,0,0,1-1.83.33,1.35,1.35,0,0,1-.92-.29"/><path class="cls-4" d="M455.36,143.3a5.1,5.1,0,0,0-3.29-.93,8.66,8.66,0,0,0-4.07,1l1,2a7.46,7.46,0,0,1,3-.77,1.45,1.45,0,0,1,1.66,1.62v.46l-1.85.06a6.85,6.85,0,0,0-3.57.89,2.82,2.82,0,0,0-1.19,2.5,3.33,3.33,0,0,0,.88,2.49,3.25,3.25,0,0,0,2.41.88,4.86,4.86,0,0,0,2-.36,4.34,4.34,0,0,0,1.51-1.28h.07l.56,1.45h2v-7.09a3.45,3.45,0,0,0-1.14-2.84m-1.74,5.87a2,2,0,0,1-.61,1.54,2.22,2.22,0,0,1-1.61.59q-1.41,0-1.41-1.23a1.45,1.45,0,0,1,.62-1.28,3.53,3.53,0,0,1,1.88-.45l1.13,0Z"/><rect class="cls-4" x="458.51" y="138.42" width="2.9" height="14.81"/><path class="cls-4" d="M467.88,142.39a4.73,4.73,0,0,0-3.7,1.46,5.9,5.9,0,0,0-1.34,4.13,5.35,5.35,0,0,0,1.45,4,5.47,5.47,0,0,0,4,1.42,9.81,9.81,0,0,0,2.11-.19,6.82,6.82,0,0,0,1.63-.56v-2.25a10,10,0,0,1-1.79.64,8.25,8.25,0,0,1-1.82.2,2.53,2.53,0,0,1-1.92-.7,2.77,2.77,0,0,1-.74-1.93h6.87v-1.41a4.86,4.86,0,0,0-1.26-3.55,4.68,4.68,0,0,0-3.51-1.28m-2,4.31a2.69,2.69,0,0,1,.6-1.66,1.85,1.85,0,0,1,1.45-.59,1.9,1.9,0,0,1,1.46.59,2.41,2.41,0,0,1,.56,1.66Z"/><path class="cls-4" d="M480.08,142.39a4.6,4.6,0,0,0-1.94.39A3,3,0,0,0,476.8,144h-.16l-.39-1.36H474v10.64h2.9v-5a5,5,0,0,1,.55-2.7,2,2,0,0,1,1.76-.81,1.49,1.49,0,0,1,1.3.57A3,3,0,0,1,481,147v6.22h2.9v-6.94a4,4,0,0,0-1-2.9,3.71,3.71,0,0,0-2.81-1"/><path class="cls-4" d="M489.43,150.81a1.13,1.13,0,0,1-.34-.91v-5.13h3v-2.18h-3v-2.27h-1.86l-.84,2.25-1.6,1v1.23h1.39v5.13a3.84,3.84,0,0,0,.8,2.64,3.27,3.27,0,0,0,2.53.88,6.4,6.4,0,0,0,2.67-.49v-2.16a6.34,6.34,0,0,1-1.83.33,1.35,1.35,0,0,1-.92-.29"/><path class="cls-4" d="M511.15,146.89l8-11.7H513l-6,7.29-6-7.29h-7.22l8,11.7-8.44,11.7h7.37l6.29-7.43,3.14,3.69,3.19,3.74h6.33Zm-10.88,10.78h-5.15l7.38-10.24.38-.52-.36-.54-7-10.26h5.05l8.82,10.77Z"/><line class="cls-6" x1="405.19" y1="130.46" x2="415.01" y2="140.29"/><line class="cls-6" x1="415.04" y1="130.46" x2="405.22" y2="140.29"/></g></g></g></svg>